# xmcd CD database file
#
# Track frame offsets:
#	150
#	21288
#	38625
#	54220
#	74960
#	92790
#
# Disc length: 1568 seconds
#
# Revision: 0
# Processed by: cddbd v1.5.1PL0 Copyright (c) Steve Scherf et al.
# Submitted via: CDex 1.51
#
DISCID=4d061e06
DTITLE=cembalo - ORGANIC COLORS
DYEAR=2002
DGENRE=Rock
TTITLE0=HIGHER BACK GROUND
TTITLE1=SUPER ABLE
TTITLE2=THINK
TTITLE3=PAIN feat. PUSHIM
TTITLE4=freebird
TTITLE5=晴れてる午後に
EXTD=YEAR: 2002
EXTT0=
EXTT1=
EXTT2=
EXTT3=
EXTT4=
EXTT5=
PLAYORDER=
